<svg width="123" height="123" viewBox="0 0 123 123" fill="none" xmlns="http://www.w3.org/2000/svg">
<path d="M25.0353 0.000296356C24.7363 0.00504418 24.4412 0.068674 24.1668 0.187551C23.8923 0.306428 23.644 0.478224 23.436 0.693127C23.2279 0.908029 23.0643 1.16183 22.9543 1.44003C22.8443 1.71823 22.7902 2.01538 22.795 2.31451V9.11139H2.27677C1.67293 9.11139 1.09383 9.35136 0.66685 9.77853C0.239873 10.2057 0 10.7851 0 11.3892V31.8891H4.55353V13.6669H22.795V18.6416C20.1539 19.5891 18.2414 22.1084 18.2414 25.0558C18.2414 28.8004 21.3242 31.8891 25.0717 31.8891C28.8147 31.8891 31.902 28.8004 31.902 25.0558C31.902 22.1084 29.985 19.5891 27.3485 18.6416V13.6669H95.6515V18.6416C93.0105 19.5891 91.098 22.1084 91.098 25.0558C91.098 28.8004 94.1807 31.8891 97.9283 31.8891C101.671 31.8891 104.759 28.8004 104.759 25.0558C104.759 22.1084 102.842 19.5891 100.205 18.6416V13.6669H118.446V31.8891H123V11.3892C123 10.7851 122.76 10.2057 122.333 9.77853C121.906 9.35136 121.327 9.11139 120.723 9.11139H100.205V2.31451C100.21 2.00925 100.153 1.70611 100.039 1.42311C99.9245 1.14011 99.7543 0.883028 99.5385 0.667144C99.3227 0.451261 99.0657 0.28098 98.7828 0.166424C98.5 0.0518671 98.197 -0.00462825 97.8918 0.000296356C97.5928 0.00504418 97.2977 0.068674 97.0233 0.187551C96.7489 0.306428 96.5005 0.478224 96.2925 0.693127C96.0845 0.908029 95.9208 1.16183 95.8108 1.44003C95.7008 1.71823 95.6467 2.01538 95.6515 2.31451V9.11139H27.3485V2.31451C27.3534 2.00925 27.297 1.70611 27.1825 1.42311C27.068 1.14011 26.8977 0.883028 26.682 0.667144C26.4662 0.451261 26.2092 0.28098 25.9263 0.166424C25.6435 0.0518671 25.3405 -0.00462825 25.0353 0.000296356ZM24.8213 22.8236C24.9848 22.8413 25.1496 22.8413 25.3131 22.8236C25.8711 22.8706 26.3907 23.1267 26.7681 23.5406C27.1455 23.9544 27.3528 24.4956 27.3485 25.0558C27.3485 26.3405 26.3558 27.3336 25.0717 27.3336C24.7716 27.3379 24.4736 27.2819 24.1954 27.1689C23.9172 27.056 23.6645 26.8884 23.4523 26.676C23.24 26.4636 23.0724 26.2108 22.9595 25.9325C22.8466 25.6542 22.7907 25.3561 22.795 25.0558C22.795 23.8622 23.6693 22.9466 24.8213 22.8236ZM97.6778 22.8236C97.8413 22.8413 98.0061 22.8413 98.1696 22.8236C98.7276 22.8706 99.2472 23.1267 99.6246 23.5406C100.002 23.9544 100.209 24.4956 100.205 25.0558C100.205 26.3405 99.2124 27.3336 97.9283 27.3336C97.6281 27.3379 97.3301 27.2819 97.0519 27.1689C96.7738 27.056 96.5211 26.8884 96.3088 26.676C96.0965 26.4636 95.929 26.2108 95.8161 25.9325C95.7032 25.6542 95.6472 25.3561 95.6515 25.0558C95.6515 23.8622 96.5258 22.9466 97.6778 22.8236ZM2.30409 36.4446C1.70025 36.4446 1.12115 36.6846 0.69417 37.1118C0.267194 37.539 0.0273214 38.1183 0.0273214 38.7224V120.722C0.0273214 121.326 0.267194 121.906 0.69417 122.333C1.12115 122.76 1.70025 123 2.30409 123H120.696C121.3 123 121.879 122.76 122.306 122.333C122.733 121.906 122.973 121.326 122.973 120.722V38.7224C122.973 38.1183 122.733 37.539 122.306 37.1118C121.879 36.6846 121.3 36.4446 120.696 36.4446H2.30409ZM4.58085 41.0002H118.419V118.444H4.58085V41.0002ZM47.8394 45.5557C47.2356 45.5557 46.6565 45.7957 46.2295 46.2229C45.8025 46.65 45.5626 47.2294 45.5626 47.8335V56.9446C45.5626 57.5487 45.8025 58.1281 46.2295 58.5552C46.6565 58.9824 47.2356 59.2224 47.8394 59.2224H56.9465C57.5503 59.2224 58.1294 58.9824 58.5564 58.5552C58.9834 58.1281 59.2232 57.5487 59.2232 56.9446V47.8335C59.2232 47.2294 58.9834 46.65 58.5564 46.2229C58.1294 45.7957 57.5503 45.5557 56.9465 45.5557H47.8394ZM66.0535 45.5557C65.4497 45.5557 64.8706 45.7957 64.4436 46.2229C64.0166 46.65 63.7768 47.2294 63.7768 47.8335V56.9446C63.7768 57.5487 64.0166 58.1281 64.4436 58.5552C64.8706 58.9824 65.4497 59.2224 66.0535 59.2224H75.1606C75.7644 59.2224 76.3435 58.9824 76.7705 58.5552C77.1975 58.1281 77.4374 57.5487 77.4374 56.9446V47.8335C77.4374 47.2294 77.1975 46.65 76.7705 46.2229C76.3435 45.7957 75.7644 45.5557 75.1606 45.5557H66.0535ZM84.2677 45.5557C83.6638 45.5557 83.0847 45.7957 82.6578 46.2229C82.2308 46.65 81.9909 47.2294 81.9909 47.8335V56.9446C81.9909 57.5487 82.2308 58.1281 82.6578 58.5552C83.0847 58.9824 83.6638 59.2224 84.2677 59.2224H93.3747C93.9786 59.2224 94.5577 58.9824 94.9846 58.5552C95.4116 58.1281 95.6515 57.5487 95.6515 56.9446V47.8335C95.6515 47.2294 95.4116 46.65 94.9846 46.2229C94.5577 45.7957 93.9786 45.5557 93.3747 45.5557H84.2677ZM102.482 45.5557C101.878 45.5557 101.299 45.7957 100.872 46.2229C100.445 46.65 100.205 47.2294 100.205 47.8335V56.9446C100.205 57.5487 100.445 58.1281 100.872 58.5552C101.299 58.9824 101.878 59.2224 102.482 59.2224H111.589C112.193 59.2224 112.772 58.9824 113.199 58.5552C113.626 58.1281 113.866 57.5487 113.866 56.9446V47.8335C113.866 47.2294 113.626 46.65 113.199 46.2229C112.772 45.7957 112.193 45.5557 111.589 45.5557H102.482ZM38.6686 48.6717C38.0789 48.685 37.5173 48.9267 37.1022 49.346L32.667 53.7421L31.2418 52.3344C31.0305 52.1184 30.7783 51.9466 30.4999 51.829C30.2215 51.7115 29.9226 51.6506 29.6204 51.6498C29.3183 51.649 29.019 51.7084 28.7401 51.8245C28.4611 51.9406 28.208 52.1111 27.9956 52.3261C27.7832 52.541 27.6156 52.7961 27.5027 53.0765C27.3899 53.3569 27.3339 53.6569 27.3381 53.9592C27.3423 54.2614 27.4065 54.5598 27.5272 54.8369C27.6478 55.1141 27.8223 55.3644 28.0407 55.5734L31.0642 58.5618C31.4904 58.9833 32.0655 59.2197 32.6648 59.2197C33.264 59.2197 33.8391 58.9833 34.2653 58.5618L40.3079 52.5849C40.6386 52.2664 40.8653 51.8552 40.9583 51.4055C41.0512 50.9557 41.0061 50.4883 40.8289 50.0646C40.6516 49.6409 40.3504 49.2808 39.9649 49.0314C39.5794 48.782 39.1275 48.6551 38.6686 48.6672V48.6717ZM13.6879 50.1113V54.6668H18.2414V50.1113H13.6879ZM50.1162 50.1113H54.6697V54.6668H50.1162V50.1113ZM68.3303 50.1113H72.8838V54.6668H68.3303V50.1113ZM86.5444 50.1113H91.098V54.6668H86.5444V50.1113ZM104.759 50.1113H109.312V54.6668H104.759V50.1113ZM11.4112 63.7779C10.8073 63.7779 10.2282 64.0179 9.80124 64.4451C9.37426 64.8722 9.13439 65.4516 9.13439 66.0557V75.1668C9.13439 75.7709 9.37426 76.3502 9.80124 76.7774C10.2282 77.2046 10.8073 77.4445 11.4112 77.4445H20.5182C21.1221 77.4445 21.7012 77.2046 22.1281 76.7774C22.5551 76.3502 22.795 75.7709 22.795 75.1668V66.0557C22.795 65.4516 22.5551 64.8722 22.1281 64.4451C21.7012 64.0179 21.1221 63.7779 20.5182 63.7779H11.4112ZM29.6253 63.7779C29.0214 63.7779 28.4423 64.0179 28.0154 64.4451C27.5884 64.8722 27.3485 65.4516 27.3485 66.0557V75.1668C27.3485 75.7709 27.5884 76.3502 28.0154 76.7774C28.4423 77.2046 29.0214 77.4445 29.6253 77.4445H38.7323C39.3362 77.4445 39.9153 77.2046 40.3423 76.7774C40.7692 76.3502 41.0091 75.7709 41.0091 75.1668V66.0557C41.0091 65.4516 40.7692 64.8722 40.3423 64.4451C39.9153 64.0179 39.3362 63.7779 38.7323 63.7779H29.6253ZM47.8394 63.7779C47.2356 63.7779 46.6565 64.0179 46.2295 64.4451C45.8025 64.8722 45.5626 65.4516 45.5626 66.0557V75.1668C45.5626 75.7709 45.8025 76.3502 46.2295 76.7774C46.6565 77.2046 47.2356 77.4445 47.8394 77.4445H56.9465C57.5503 77.4445 58.1294 77.2046 58.5564 76.7774C58.9834 76.3502 59.2232 75.7709 59.2232 75.1668V66.0557C59.2232 65.4516 58.9834 64.8722 58.5564 64.4451C58.1294 64.0179 57.5503 63.7779 56.9465 63.7779H47.8394ZM66.0535 63.7779C65.4497 63.7779 64.8706 64.0179 64.4436 64.4451C64.0166 64.8722 63.7768 65.4516 63.7768 66.0557V75.1668C63.7768 75.7709 64.0166 76.3502 64.4436 76.7774C64.8706 77.2046 65.4497 77.4445 66.0535 77.4445H75.1606C75.7644 77.4445 76.3435 77.2046 76.7705 76.7774C77.1975 76.3502 77.4374 75.7709 77.4374 75.1668V66.0557C77.4374 65.4516 77.1975 64.8722 76.7705 64.4451C76.3435 64.0179 75.7644 63.7779 75.1606 63.7779H66.0535ZM102.482 63.7779C101.878 63.7779 101.299 64.0179 100.872 64.4451C100.445 64.8722 100.205 65.4516 100.205 66.0557V75.1668C100.205 75.7709 100.445 76.3502 100.872 76.7774C101.299 77.2046 101.878 77.4445 102.482 77.4445H111.589C112.193 77.4445 112.772 77.2046 113.199 76.7774C113.626 76.3502 113.866 75.7709 113.866 75.1668V66.0557C113.866 65.4516 113.626 64.8722 113.199 64.4451C112.772 64.0179 112.193 63.7779 111.589 63.7779H102.482ZM93.3201 66.8939C92.7304 66.9072 92.1688 67.1489 91.7537 67.5681L87.3094 71.9642L85.8842 70.5566C85.6728 70.3405 85.4206 70.1688 85.1423 70.0512C84.8639 69.9337 84.565 69.8728 84.2628 69.872C83.9607 69.8712 83.6614 69.9306 83.3825 70.0467C83.1035 70.1628 82.8504 70.3333 82.638 70.5483C82.4256 70.7632 82.258 71.0183 82.1451 71.2987C82.0322 71.579 81.9763 71.8791 81.9805 72.1813C81.9846 72.4836 82.0489 72.782 82.1695 73.0591C82.2902 73.3363 82.4647 73.5866 82.683 73.7956L85.7066 76.784C86.1328 77.2055 86.7079 77.4418 87.3072 77.4418C87.9064 77.4418 88.4815 77.2055 88.9077 76.784L94.9594 70.8071C95.2901 70.4885 95.5168 70.0774 95.6097 69.6276C95.7027 69.1779 95.6576 68.7105 95.4803 68.2868C95.3031 67.8631 95.0019 67.503 94.6164 67.2536C94.2309 67.0042 93.779 66.8818 93.3201 66.8939ZM13.6879 68.3335H18.2414V72.889H13.6879V68.3335ZM31.902 68.3335H36.4556V72.889H31.902V68.3335ZM50.1162 68.3335H54.6697V72.889H50.1162V68.3335ZM68.3303 68.3335H72.8838V72.889H68.3303V68.3335ZM104.759 68.3335H109.312V72.889H104.759V68.3335ZM11.4112 82.0001C10.8073 82.0001 10.2282 82.2401 9.80124 82.6672C9.37426 83.0944 9.13439 83.6738 9.13439 84.2779V93.389C9.13439 93.9931 9.37426 94.5724 9.80124 94.9996C10.2282 95.4268 10.8073 95.6667 11.4112 95.6667H20.5182C21.1221 95.6667 21.7012 95.4268 22.1281 94.9996C22.5551 94.5724 22.795 93.9931 22.795 93.389V84.2779C22.795 83.6738 22.5551 83.0944 22.1281 82.6672C21.7012 82.2401 21.1221 82.0001 20.5182 82.0001H11.4112ZM29.6253 82.0001C29.0214 82.0001 28.4423 82.2401 28.0154 82.6672C27.5884 83.0944 27.3485 83.6738 27.3485 84.2779V93.389C27.3485 93.9931 27.5884 94.5724 28.0154 94.9996C28.4423 95.4268 29.0214 95.6667 29.6253 95.6667H38.7323C39.3362 95.6667 39.9153 95.4268 40.3423 94.9996C40.7692 94.5724 41.0091 93.9931 41.0091 93.389V84.2779C41.0091 83.6738 40.7692 83.0944 40.3423 82.6672C39.9153 82.2401 39.3362 82.0001 38.7323 82.0001H29.6253ZM66.0535 82.0001C65.4497 82.0001 64.8706 82.2401 64.4436 82.6672C64.0166 83.0944 63.7768 83.6738 63.7768 84.2779V93.389C63.7768 93.9931 64.0166 94.5724 64.4436 94.9996C64.8706 95.4268 65.4497 95.6667 66.0535 95.6667H75.1606C75.7644 95.6667 76.3435 95.4268 76.7705 94.9996C77.1975 94.5724 77.4374 93.9931 77.4374 93.389V84.2779C77.4374 83.6738 77.1975 83.0944 76.7705 82.6672C76.3435 82.2401 75.7644 82.0001 75.1606 82.0001H66.0535ZM84.2677 82.0001C83.6638 82.0001 83.0847 82.2401 82.6578 82.6672C82.2308 83.0944 81.9909 83.6738 81.9909 84.2779V93.389C81.9909 93.9931 82.2308 94.5724 82.6578 94.9996C83.0847 95.4268 83.6638 95.6667 84.2677 95.6667H93.3747C93.9786 95.6667 94.5577 95.4268 94.9846 94.9996C95.4116 94.5724 95.6515 93.9931 95.6515 93.389V84.2779C95.6515 83.6738 95.4116 83.0944 94.9846 82.6672C94.5577 82.2401 93.9786 82.0001 93.3747 82.0001H84.2677ZM102.482 82.0001C101.878 82.0001 101.299 82.2401 100.872 82.6672C100.445 83.0944 100.205 83.6738 100.205 84.2779V93.389C100.205 93.9931 100.445 94.5724 100.872 94.9996C101.299 95.4268 101.878 95.6667 102.482 95.6667H111.589C112.193 95.6667 112.772 95.4268 113.199 94.9996C113.626 94.5724 113.866 93.9931 113.866 93.389V84.2779C113.866 83.6738 113.626 83.0944 113.199 82.6672C112.772 82.2401 112.193 82.0001 111.589 82.0001H102.482ZM56.8918 85.107C56.2989 85.1179 55.7337 85.3598 55.3163 85.7812L50.8812 90.1864L49.4559 88.7787C49.2446 88.5627 48.9924 88.3909 48.714 88.2734C48.4357 88.1559 48.1367 88.0949 47.8346 88.0942C47.5324 88.0934 47.2332 88.1528 46.9542 88.2689C46.6752 88.385 46.4222 88.5555 46.2097 88.7704C45.9973 88.9854 45.8298 89.2405 45.7169 89.5209C45.604 89.8012 45.548 90.1013 45.5522 90.4035C45.5564 90.7058 45.6207 91.0042 45.7413 91.2813C45.8619 91.5584 46.0365 91.8088 46.2548 92.0177L49.2783 95.0062C49.7045 95.4276 50.2796 95.664 50.8789 95.664C51.4782 95.664 52.0533 95.4276 52.4795 95.0062L58.522 89.0202C58.8521 88.7021 59.0785 88.2918 59.1717 87.843C59.2649 87.3941 59.2206 86.9275 59.0445 86.5042C58.8684 86.081 58.5687 85.7208 58.1846 85.4706C57.8005 85.2205 57.35 85.0968 56.8918 85.107ZM13.6879 86.5556H18.2414V91.1112H13.6879V86.5556ZM31.902 86.5556H36.4556V91.1112H31.902V86.5556ZM68.3303 86.5556H72.8838V91.1112H68.3303V86.5556ZM86.5444 86.5556H91.098V91.1112H86.5444V86.5556ZM104.759 86.5556H109.312V91.1112H104.759V86.5556ZM11.4112 100.222C10.8073 100.222 10.2282 100.462 9.80124 100.889C9.37426 101.317 9.13439 101.896 9.13439 102.5V111.611C9.13439 112.215 9.37426 112.795 9.80124 113.222C10.2282 113.649 10.8073 113.889 11.4112 113.889H20.5182C21.1221 113.889 21.7012 113.649 22.1281 113.222C22.5551 112.795 22.795 112.215 22.795 111.611V102.5C22.795 101.896 22.5551 101.317 22.1281 100.889C21.7012 100.462 21.1221 100.222 20.5182 100.222H11.4112ZM29.6253 100.222C29.0214 100.222 28.4423 100.462 28.0154 100.889C27.5884 101.317 27.3485 101.896 27.3485 102.5V111.611C27.3485 112.215 27.5884 112.795 28.0154 113.222C28.4423 113.649 29.0214 113.889 29.6253 113.889H38.7323C39.3362 113.889 39.9153 113.649 40.3423 113.222C40.7692 112.795 41.0091 112.215 41.0091 111.611V102.5C41.0091 101.896 40.7692 101.317 40.3423 100.889C39.9153 100.462 39.3362 100.222 38.7323 100.222H29.6253ZM13.6879 104.778H18.2414V109.333H13.6879V104.778ZM31.902 104.778H36.4556V109.333H31.902V104.778ZM50.1162 104.778V109.333H54.6697V104.778H50.1162ZM68.3303 104.778V109.333H72.8838V104.778H68.3303ZM86.5444 104.778V109.333H91.098V104.778H86.5444ZM104.759 104.778V109.333H109.312V104.778H104.759Z" fill="#CDCDCD"/>
</svg>
