<svg width="92" height="24" viewBox="0 0 92 24" fill="none" xmlns="http://www.w3.org/2000/svg">
<path d="M5.86512 3.42071V0H10.2034V3.42071H5.86512ZM11.7302 3.42071V0H16.0685V3.42071H11.7302ZM17.5953 3.42071V0H21.0564C21.5409 0 21.9373 0.392721 21.9373 0.880869V3.42071H17.599H17.5953ZM0 3.42071V0.877198C0 0.392721 0.392721 0 0.877198 0H4.34195V3.42071H0ZM5.86512 8.36458V4.94388H10.2034V8.36458H5.86512ZM11.7302 8.36458V4.94388H16.0685V8.36458H11.7302ZM17.5953 8.36458V4.94388H21.9336V8.36458H17.5953ZM0 8.36458V4.94388H4.33828V8.36458H0ZM5.86512 13.3085V9.88775H10.2034V13.3085H5.86512ZM11.7302 13.3085V9.88775H16.0685V13.3085H11.7302ZM17.5953 13.3085V9.88775H21.9336V13.3085H17.5953ZM0.00367029 13.3085V9.88775H4.34195V13.3085H0H0.00367029Z" fill="url(#paint0_radial_212_1956)"/>
<path d="M21.0564 17.8963C21.4235 17.0999 21.7097 16.2484 21.9263 15.3455H18.6267C18.5203 15.7088 18.3991 16.0612 18.2597 16.3988C18.0872 16.8246 17.8853 17.221 17.6614 17.5917L15.4152 15.3455L13.4259 17.3348L15.7859 19.6837C14.527 20.649 12.9194 21.1225 10.9631 21.1078C9.13901 21.0968 7.61951 20.6747 6.40098 19.8416C5.18244 19.0084 4.26854 17.8559 3.6556 16.3842C3.51613 16.0502 3.39868 15.7052 3.29225 15.3491H0C0.216547 16.2484 0.502829 17.1035 0.873528 17.9C1.76174 19.8159 3.05735 21.3097 4.75669 22.3851C6.45603 23.4605 8.5224 24 10.9595 24C13.3965 24 15.4813 23.4605 17.1806 22.3851C17.4485 22.2162 17.7018 22.0327 17.9514 21.8419L19.258 23.1412C19.7241 23.6036 20.4802 23.5999 20.939 23.1301L21.2326 22.8328C21.6877 22.3704 21.684 21.6217 21.2253 21.1629L19.9076 19.8452C20.3444 19.2543 20.7261 18.6047 21.0528 17.8963H21.0564Z" fill="#682BF1"/>
<defs>
<radialGradient id="paint0_radial_212_1956" cx="0" cy="0" r="1" gradientUnits="userSpaceOnUse" gradientTransform="translate(10.7943 0.157822) scale(14.527)">
<stop offset="0.07" stop-color="#00B2EE"/>
<stop offset="0.18" stop-color="#10A9EE"/>
<stop offset="0.38" stop-color="#3A91EF"/>
<stop offset="0.66" stop-color="#7E6BF1"/>
<stop offset="0.69" stop-color="#8767F2"/>
<stop offset="0.76" stop-color="#825FF1"/>
<stop offset="0.86" stop-color="#7749F1"/>
<stop offset="0.97" stop-color="#682BF1"/>
</radialGradient>
</defs>
</svg>
