<svg width="19" height="23" viewBox="0 0 19 23" fill="none" xmlns="http://www.w3.org/2000/svg">
<path d="M9.3674 11.5502C12.2808 11.5502 14.6425 9.18849 14.6425 6.27512C14.6425 3.36175 12.2808 1 9.3674 1C6.45404 1 4.09229 3.36175 4.09229 6.27512C4.09229 9.18849 6.45404 11.5502 9.3674 11.5502Z" stroke="#200E32" stroke-width="1.5" stroke-linecap="round" stroke-linejoin="round"/>
<path fill-rule="evenodd" clip-rule="evenodd" d="M1.00002 18.887C0.998618 18.5162 1.08155 18.1499 1.24257 17.8158C1.74785 16.8052 3.17275 16.2696 4.35511 16.0271C5.20783 15.8451 6.07233 15.7236 6.94216 15.6633C8.5526 15.5218 10.1723 15.5218 11.7828 15.6633C12.6525 15.7243 13.517 15.8458 14.3698 16.0271C15.5522 16.2696 16.9771 16.7547 17.4824 17.8158C17.8062 18.4968 17.8062 19.2874 17.4824 19.9683C16.9771 21.0294 15.5522 21.5145 14.3698 21.7469C13.5181 21.9364 12.6533 22.0614 11.7828 22.1208C10.472 22.2319 9.15513 22.2522 7.84157 22.1815C7.5384 22.1815 7.24533 22.1815 6.94216 22.1208C6.0749 22.0621 5.2134 21.9371 4.36522 21.7469C3.17275 21.5145 1.75796 21.0294 1.24257 19.9683C1.08238 19.6304 0.999523 19.261 1.00002 18.887Z" stroke="#200E32" stroke-width="1.5" stroke-linecap="round" stroke-linejoin="round"/>
</svg>
