<svg width="78" height="18" viewBox="0 0 78 18" fill="none" xmlns="http://www.w3.org/2000/svg">
<path d="M7.6748 17.1244C6.03616 17.1244 4.64793 16.7642 3.50572 16.0393C2.3635 15.3145 1.49366 14.3128 0.896196 13.0256C0.29873 11.7384 0 10.2492 0 8.56221C0 6.87525 0.29873 5.38598 0.896196 4.09879C1.49366 2.8116 2.3635 1.80997 3.50572 1.0851C4.64793 0.360237 6.03616 0 7.6748 0C9.31343 0 10.7104 0.360237 11.8527 1.0851C12.9949 1.80997 13.8603 2.8116 14.4578 4.09879C15.0509 5.38598 15.3496 6.87525 15.3496 8.56221C15.3496 10.2492 15.0509 11.7384 14.4578 13.0256C13.8647 14.3128 12.9949 15.3145 11.8527 16.0393C10.7104 16.7642 9.31783 17.1244 7.6748 17.1244ZM7.6748 15.1827C8.90048 15.1914 9.92408 14.9147 10.7412 14.3567C11.5583 13.7988 12.1734 13.0212 12.5775 12.024C12.9861 11.0268 13.1882 9.87576 13.1882 8.5666C13.1882 7.25745 12.9861 6.09766 12.5775 5.10921C12.169 4.12076 11.5583 3.34756 10.7412 2.78964C9.92408 2.2361 8.90048 1.95055 7.6748 1.94616C6.44911 1.93737 5.42991 2.21414 4.62157 2.76767C3.80884 3.3256 3.1982 4.09879 2.78964 5.09603C2.37668 6.09327 2.17021 7.24866 2.16142 8.5666C2.15263 9.87576 2.35472 11.0268 2.76767 12.0152C3.18062 13.0037 3.79127 13.7812 4.61279 14.3392C5.42991 14.8971 6.45351 15.1827 7.67919 15.1914L7.6748 15.1827ZM13.8164 17.1112L9.33101 12.6478L10.6665 11.3123L15.1299 15.7757L13.8164 17.1112Z" fill="white"/>
<path d="M21.5482 17.1025C20.7575 17.1025 20.0765 16.9751 19.5098 16.7247C18.9431 16.4743 18.473 16.1404 18.0996 15.7187C17.7262 15.3013 17.4319 14.8357 17.221 14.3261C17.0057 13.8165 16.8564 13.2937 16.7685 12.7621C16.6807 12.2305 16.6367 11.7297 16.6367 11.2685V4.45032H18.6927V10.6271C18.6927 11.207 18.7454 11.7649 18.8509 12.3052C18.9563 12.8456 19.1364 13.3332 19.3912 13.7681C19.646 14.2031 19.9887 14.5457 20.4192 14.7961C20.8497 15.0465 21.3857 15.1739 22.0359 15.1739C22.5455 15.1739 23.0111 15.0861 23.4285 14.9104C23.8458 14.7346 24.2061 14.4754 24.5004 14.1284C24.7992 13.7813 25.0276 13.342 25.1858 12.8104C25.3439 12.2789 25.4274 11.655 25.4274 10.9478L26.7629 11.3607C26.7629 12.5469 26.5476 13.5705 26.1171 14.4315C25.6866 15.2926 25.0803 15.9515 24.3027 16.4128C23.5208 16.8741 22.6026 17.1025 21.5438 17.1025H21.5482ZM25.6602 16.7818V13.4826H25.4318V4.45032H27.4746V16.7818H25.6602Z" fill="white"/>
<path d="M33.0626 17.1245C32.1401 17.1245 31.3713 16.9532 30.7518 16.6149C30.1324 16.2766 29.6623 15.8285 29.346 15.275C29.0297 14.7215 28.8716 14.1108 28.8716 13.4475C28.8716 12.7841 28.9946 12.2393 29.2406 11.7649C29.4866 11.2904 29.8381 10.8951 30.2862 10.5787C30.7343 10.2624 31.2702 10.012 31.8941 9.83192C32.4783 9.67376 33.1373 9.53318 33.8622 9.41457C34.587 9.29595 35.3251 9.18612 36.0719 9.08948C36.8188 8.99283 37.5129 8.89618 38.163 8.80392L37.4338 9.22566C37.4558 8.13177 37.2361 7.31904 36.7792 6.79187C36.3179 6.26469 35.5272 6.0055 34.3981 6.0055C33.6513 6.0055 33.0011 6.17683 32.4388 6.5151C31.8809 6.85337 31.4855 7.40251 31.257 8.16692L29.3285 7.58263C29.6272 6.50192 30.1983 5.65405 31.0506 5.03462C31.9028 4.41958 33.0275 4.10767 34.4201 4.10767C35.5403 4.10767 36.4981 4.30536 37.302 4.70513C38.1059 5.10491 38.6814 5.70677 39.0329 6.5151C39.2086 6.8973 39.3184 7.31026 39.3624 7.75396C39.4063 8.19767 39.4327 8.66773 39.4327 9.15098V16.7775H37.6271V13.8209L38.0488 14.0933C37.5832 15.0905 36.9374 15.8417 36.1027 16.3557C35.268 16.8653 34.2532 17.1201 33.0582 17.1201L33.0626 17.1245ZM33.3701 15.4244C34.0994 15.4244 34.7364 15.2926 35.2724 15.029C35.8083 14.7654 36.2389 14.4183 36.5683 13.9922C36.8934 13.5617 37.1087 13.0916 37.2097 12.582C37.324 12.1998 37.3855 11.7781 37.3986 11.308C37.4118 10.8379 37.4162 10.4821 37.4162 10.2273L38.1235 10.5348C37.4601 10.6271 36.81 10.7149 36.173 10.7984C35.5316 10.8819 34.9297 10.9697 34.3586 11.0664C33.7875 11.163 33.2735 11.2729 32.8166 11.4047C32.4827 11.5101 32.1664 11.6463 31.8765 11.8176C31.5821 11.9845 31.3493 12.1998 31.1692 12.4634C30.9891 12.727 30.9012 13.0521 30.9012 13.4387C30.9012 13.7726 30.9847 14.0933 31.156 14.3964C31.3273 14.6995 31.5953 14.9499 31.9556 15.1388C32.3158 15.3277 32.7903 15.4244 33.3789 15.4244H33.3701Z" fill="white"/>
<path d="M41.3828 16.7817V4.45021H43.2104V7.74946H43.4388V16.7817H41.3828ZM50.1735 16.7817V10.605C50.1735 10.0207 50.1207 9.45399 50.0197 8.91364C49.9187 8.37328 49.7385 7.89004 49.4837 7.45951C49.2289 7.02898 48.8863 6.69071 48.4558 6.43591C48.0252 6.1855 47.4849 6.0581 46.8303 6.0581C46.3207 6.0581 45.8594 6.14596 45.4421 6.3173C45.0291 6.48863 44.6733 6.74782 44.3745 7.09927C44.0758 7.45072 43.8474 7.89004 43.6848 8.41721C43.5223 8.94439 43.4388 9.56821 43.4388 10.2843L42.1033 9.87134C42.1033 8.6764 42.3185 7.65281 42.7491 6.79615C43.1796 5.93949 43.7859 5.28052 44.5634 4.81924C45.3454 4.35796 46.2636 4.12952 47.3223 4.12952C48.1219 4.12952 48.8028 4.25692 49.3651 4.50733C49.9274 4.75773 50.3975 5.09161 50.7709 5.50457C51.1443 5.91752 51.4387 6.38319 51.6496 6.89719C51.8648 7.41118 52.0142 7.93397 52.102 8.46114C52.1899 8.98832 52.2338 9.48914 52.2338 9.96359V16.7817H50.1779H50.1735Z" fill="white"/>
<path d="M59.0085 17.1244C57.8575 17.1244 56.8734 16.8389 56.0519 16.2634C55.2304 15.6879 54.5978 14.9103 54.1497 13.9306C53.706 12.9465 53.4819 11.8395 53.4819 10.6094C53.4819 9.37932 53.706 8.26786 54.1497 7.28819C54.5934 6.30413 55.2304 5.53094 56.0519 4.96422C56.8734 4.39751 57.8575 4.11196 58.9997 4.11196C60.1419 4.11196 61.1436 4.39312 61.9343 4.95544C62.7251 5.51776 63.3269 6.29095 63.7311 7.27501C64.1397 8.25907 64.3417 9.37053 64.3417 10.6094C64.3417 11.8483 64.1397 12.9421 63.7311 13.9262C63.3225 14.9103 62.7251 15.6922 61.9343 16.2677C61.1436 16.8432 60.1683 17.1288 59.0129 17.1288L59.0085 17.1244ZM59.2589 15.2617C60.0892 15.2617 60.7701 15.064 61.3017 14.6643C61.8333 14.2645 62.2287 13.7109 62.4835 13.008C62.7383 12.3051 62.8657 11.5012 62.8657 10.605C62.8657 9.7088 62.7383 8.88729 62.4835 8.18878C62.2287 7.49027 61.8377 6.94992 61.3149 6.55454C60.7877 6.16355 60.1244 5.96586 59.316 5.96586C58.5077 5.96586 57.7872 6.17233 57.2425 6.58089C56.6977 6.99385 56.2935 7.54738 56.0343 8.24589C55.7708 8.9444 55.639 9.73077 55.639 10.5962C55.639 11.4617 55.7708 12.2612 56.0387 12.9641C56.3067 13.667 56.7065 14.2249 57.2425 14.6379C57.7784 15.0508 58.4506 15.2529 59.2589 15.2529V15.2617ZM62.8657 16.7817V7.70554H62.6372V0.342651H64.68V16.7817H62.8657Z" fill="white"/>
<path d="M72.0606 17.1245C70.8349 17.1245 69.7806 16.8477 68.8932 16.2898C68.0057 15.7363 67.3248 14.9631 66.8416 13.9834C66.3627 12.9994 66.1211 11.8747 66.1211 10.6051C66.1211 9.33549 66.3627 8.1757 66.8504 7.20482C67.338 6.22955 68.0277 5.46954 68.9151 4.92479C69.8069 4.38004 70.8525 4.10767 72.0562 4.10767C73.2599 4.10767 74.3494 4.38443 75.2412 4.93357C76.133 5.48711 76.814 6.25151 77.2884 7.22679C77.7629 8.20646 78.0001 9.3311 78.0001 10.6007C78.0001 11.8703 77.7585 13.0213 77.2796 13.9966C76.8008 14.9763 76.1155 15.7407 75.2237 16.2898C74.3319 16.8433 73.2731 17.1157 72.0474 17.1157L72.0606 17.1245ZM72.0606 15.1959C73.339 15.1959 74.2923 14.7698 74.9161 13.9175C75.54 13.0653 75.8519 11.9626 75.8519 10.6051C75.8519 9.24763 75.5356 8.10102 74.903 7.27511C74.2704 6.4492 73.3214 6.03625 72.0606 6.03625C71.1996 6.03625 70.4923 6.22955 69.9387 6.62054C69.3852 7.01153 68.9678 7.54749 68.6955 8.22842C68.4231 8.91375 68.2825 9.70451 68.2825 10.6051C68.2825 11.9889 68.6032 13.1004 69.2402 13.9395C69.8816 14.7786 70.8174 15.1959 72.0606 15.1959Z" fill="white"/>
</svg>
