<svg width="64" height="64" viewBox="0 0 64 64" fill="none" xmlns="http://www.w3.org/2000/svg">
<g clip-path="url(#clip0_458_866)">
<path d="M32 64C49.6731 64 64 49.6731 64 32C64 14.3269 49.6731 0 32 0C14.3269 0 0 14.3269 0 32C0 49.6731 14.3269 64 32 64Z" fill="#00B2EE"/>
<path d="M38.7225 63.245C39.3398 63.1262 39.9534 62.9893 40.5625 62.8343C41.5894 62.5473 42.6014 62.2091 43.5945 61.821C44.5889 61.4362 45.5635 61.0018 46.5145 60.5197C47.4658 60.0356 48.3923 59.5043 49.2905 58.9277C50.1877 58.351 51.0554 57.7297 51.8905 57.0663C52.7271 56.4021 53.5299 55.6963 54.2959 54.9517C55.0606 54.2089 55.7877 53.4284 56.4745 52.613C57.1619 51.7969 57.808 50.947 58.4105 50.0663C59.0128 49.1872 59.5709 48.2785 60.0825 47.3437C60.5942 46.4075 61.0588 45.4463 61.4745 44.4637C61.8906 43.4809 62.2573 42.4778 62.5732 41.4583C62.8438 40.564 63.0752 39.6583 63.2665 38.7437L44.2612 19.7384C42.6525 18.1266 40.7411 16.8488 38.6368 15.9783C36.5326 15.1079 34.277 14.662 31.9999 14.6664C29.7228 14.6635 27.4676 15.11 25.3633 15.9801C23.2591 16.8501 21.3472 18.1268 19.7371 19.7369C18.127 21.347 16.8503 23.2589 15.9802 25.3632C15.1101 27.4674 14.6637 29.7226 14.6665 31.9997C14.6665 36.7943 16.6052 41.125 19.7385 44.261L38.7252 63.245H38.7225Z" fill="#3A91EF"/>
<path d="M32 14.6663C41.5894 14.6663 49.3334 22.4103 49.3334 31.9997C49.3334 41.589 41.5894 49.333 32 49.333C29.5727 49.3368 27.1717 48.8301 24.9529 47.8458C22.7342 46.8615 20.7472 45.4216 19.1209 43.6196C17.4947 41.8176 16.2656 39.6937 15.5134 37.3859C14.7612 35.0781 14.5027 32.6379 14.7547 30.2237C15.1897 25.9542 17.1949 21.9986 20.3814 19.124C23.5679 16.2494 27.7085 14.6608 32 14.6663ZM31.9787 21.317C31.6304 21.3357 31.3019 21.4849 31.0587 21.735C30.8156 21.9851 30.6756 22.3176 30.6667 22.6663V30.6663H22.6667C22.314 30.6749 21.9778 30.8176 21.7267 31.0653C21.4755 31.313 21.3282 31.6471 21.3147 31.9997C21.3282 32.3522 21.4755 32.6863 21.7267 32.9341C21.9778 33.1818 22.314 33.3244 22.6667 33.333H30.6667V41.333C30.6753 41.6857 30.8179 42.0218 31.0656 42.273C31.3133 42.5242 31.6475 42.6715 32 42.685C32.3526 42.6715 32.6867 42.5242 32.9344 42.273C33.1821 42.0218 33.3248 41.6857 33.3334 41.333V33.333H41.3334C41.686 33.3244 42.0222 33.1818 42.2734 32.9341C42.5246 32.6863 42.6719 32.3522 42.6854 31.9997C42.6719 31.6471 42.5246 31.313 42.2734 31.0653C42.0222 30.8176 41.686 30.6749 41.3334 30.6663H33.3334V22.6663C33.3239 22.3105 33.1779 21.972 32.9258 21.7209C32.6736 21.4697 32.3345 21.3251 31.9787 21.317Z" fill="white"/>
</g>
<defs>
<clipPath id="clip0_458_866">
<rect width="64" height="64" fill="white"/>
</clipPath>
</defs>
</svg>
