<?xml version="1.0" encoding="UTF-8"?>
<svg id="Layer_2" data-name="Layer 2" xmlns="http://www.w3.org/2000/svg" viewBox="0 0 177.57 38.98">
  <defs>
    <style>
      .cls-1 {
        fill: #000;
        stroke-width: 0px;
      }
    </style>
  </defs>
  <g id="Layer_1-2" data-name="Layer 1">
    <g>
      <path class="cls-1" d="M17.46,38.98c-3.73,0-6.89-.82-9.49-2.47-2.6-1.65-4.58-3.93-5.94-6.86-1.36-2.93-2.04-6.32-2.04-10.16s.68-7.23,2.04-10.16c1.36-2.93,3.34-5.21,5.94-6.86C10.58.82,13.74,0,17.46,0s6.91.82,9.51,2.47c2.6,1.65,4.57,3.93,5.93,6.86,1.35,2.93,2.03,6.32,2.03,10.16s-.68,7.23-2.03,10.16c-1.35,2.93-3.33,5.21-5.93,6.86-2.6,1.65-5.77,2.47-9.51,2.47ZM17.46,34.57c2.79.02,5.12-.61,6.98-1.88,1.86-1.27,3.26-3.04,4.18-5.31.93-2.27,1.39-4.89,1.39-7.87s-.46-5.62-1.39-7.87c-.93-2.25-2.32-4.01-4.18-5.28-1.86-1.26-4.19-1.91-6.98-1.92-2.79-.02-5.11.61-6.95,1.87-1.85,1.27-3.24,3.03-4.17,5.3-.94,2.27-1.41,4.9-1.43,7.9-.02,2.98.44,5.6,1.38,7.85.94,2.25,2.33,4.02,4.2,5.29,1.86,1.27,4.19,1.92,6.98,1.94ZM31.45,38.96l-10.21-10.16,3.04-3.04,10.16,10.16-2.99,3.04Z"/>
      <path class="cls-1" d="M49.05,38.93c-1.8,0-3.35-.29-4.64-.86-1.29-.57-2.36-1.33-3.21-2.29-.85-.95-1.52-2.01-2-3.17-.49-1.16-.83-2.35-1.03-3.56-.2-1.21-.3-2.35-.3-3.4v-15.52h4.68v14.06c0,1.32.12,2.59.36,3.82.24,1.23.65,2.34,1.23,3.33.58.99,1.36,1.77,2.34,2.34.98.57,2.2.86,3.68.86,1.16,0,2.22-.2,3.17-.6.95-.4,1.77-.99,2.44-1.78.68-.79,1.2-1.79,1.56-3,.36-1.21.55-2.63.55-4.24l3.04.94c0,2.7-.49,5.03-1.47,6.99-.98,1.96-2.36,3.46-4.13,4.51-1.78,1.05-3.87,1.57-6.28,1.57ZM58.4,38.2v-7.51h-.52V10.14h4.65v28.07h-4.13Z"/>
      <path class="cls-1" d="M75.26,38.98c-2.1,0-3.85-.39-5.26-1.16-1.41-.77-2.48-1.79-3.2-3.05-.72-1.26-1.08-2.65-1.08-4.16s.28-2.75.84-3.83c.56-1.08,1.36-1.98,2.38-2.7,1.02-.72,2.24-1.29,3.66-1.7,1.33-.36,2.83-.68,4.48-.95,1.65-.27,3.33-.52,5.03-.74,1.7-.22,3.28-.44,4.76-.65l-1.66.96c.05-2.49-.45-4.34-1.49-5.54-1.05-1.2-2.85-1.79-5.42-1.79-1.7,0-3.18.39-4.46,1.16-1.27.77-2.17,2.02-2.69,3.76l-4.39-1.33c.68-2.46,1.98-4.39,3.92-5.8,1.94-1.4,4.5-2.11,7.67-2.11,2.55,0,4.73.45,6.56,1.36,1.83.91,3.14,2.28,3.94,4.12.4.87.65,1.81.75,2.82.1,1.01.16,2.08.16,3.18v17.36h-4.11v-6.73l.96.62c-1.06,2.27-2.53,3.98-4.43,5.15-1.9,1.16-4.21,1.74-6.93,1.74ZM75.96,35.11c1.66,0,3.11-.3,4.33-.9,1.22-.6,2.2-1.39,2.95-2.36.74-.98,1.23-2.05,1.46-3.21.26-.87.4-1.83.43-2.9.03-1.07.04-1.88.04-2.46l1.61.7c-1.51.21-2.99.41-4.44.6-1.46.19-2.83.39-4.13.61-1.3.22-2.47.47-3.51.77-.76.24-1.48.55-2.14.94-.67.38-1.2.87-1.61,1.47-.41.6-.61,1.34-.61,2.22,0,.76.19,1.49.58,2.18.39.69,1,1.26,1.82,1.69.82.43,1.9.65,3.24.65Z"/>
      <path class="cls-1" d="M94.19,38.2V10.14h4.16v7.51h.52v20.56h-4.68ZM114.21,38.2v-14.06c0-1.33-.12-2.62-.35-3.85-.23-1.23-.64-2.33-1.22-3.31-.58-.98-1.36-1.75-2.34-2.33-.98-.57-2.21-.86-3.7-.86-1.16,0-2.21.2-3.16.59-.94.39-1.75.98-2.43,1.78-.68.8-1.2,1.8-1.57,3-.37,1.2-.56,2.62-.56,4.25l-3.04-.94c0-2.72.49-5.05,1.47-7,.98-1.95,2.36-3.45,4.13-4.5,1.78-1.05,3.87-1.57,6.28-1.57,1.82,0,3.37.29,4.65.86,1.28.57,2.35,1.33,3.2,2.27.85.94,1.52,2,2,3.17.49,1.17.83,2.36,1.03,3.56.2,1.2.3,2.34.3,3.42v15.52h-4.68Z"/>
      <path class="cls-1" d="M134.32,38.98c-2.62,0-4.86-.65-6.73-1.96-1.87-1.31-3.31-3.08-4.33-5.31-1.01-2.24-1.52-4.76-1.52-7.56s.51-5.33,1.52-7.56c1.01-2.24,2.46-4,4.33-5.29,1.87-1.29,4.11-1.94,6.71-1.94s4.88.64,6.68,1.92c1.8,1.28,3.17,3.04,4.09,5.28.93,2.24,1.39,4.77,1.39,7.59s-.46,5.31-1.39,7.55c-.93,2.24-2.29,4.02-4.09,5.33-1.8,1.31-4.02,1.96-6.65,1.96ZM134.89,34.75c1.89,0,3.44-.45,4.65-1.36,1.21-.91,2.11-2.17,2.69-3.77.58-1.6.87-3.43.87-5.47s-.29-3.91-.87-5.5c-.58-1.59-1.47-2.82-2.66-3.72-1.2-.89-2.71-1.34-4.55-1.34s-3.48.47-4.72,1.4c-1.24.94-2.16,2.2-2.75,3.79-.6,1.59-.9,3.38-.9,5.35s.3,3.79.91,5.39c.61,1.6,1.52,2.87,2.74,3.81,1.22.94,2.75,1.4,4.59,1.4ZM143.1,38.2v-20.66h-.52V.78h4.65v37.42h-4.13Z"/>
      <path class="cls-1" d="M164.03,38.98c-2.79,0-5.19-.63-7.21-1.9-2.02-1.26-3.57-3.02-4.67-5.25-1.09-2.24-1.64-4.8-1.64-7.69s.55-5.53,1.66-7.74c1.11-2.22,2.68-3.95,4.7-5.19,2.03-1.24,4.41-1.86,7.15-1.86s5.22.63,7.25,1.88c2.03,1.26,3.58,3,4.66,5.22,1.08,2.23,1.62,4.79,1.62,7.68s-.55,5.51-1.64,7.73c-1.09,2.23-2.65,3.97-4.68,5.22-2.03,1.26-4.44,1.88-7.23,1.88ZM164.03,34.59c2.91,0,5.08-.97,6.5-2.91,1.42-1.94,2.13-4.45,2.13-7.54s-.72-5.7-2.16-7.58c-1.44-1.88-3.6-2.82-6.47-2.82-1.96,0-3.57.44-4.83,1.33s-2.21,2.11-2.83,3.66c-.62,1.56-.94,3.36-.94,5.41,0,3.15.73,5.68,2.18,7.59,1.46,1.91,3.59,2.86,6.42,2.86Z"/>
    </g>
  </g>
</svg>